<svg xmlns="http://www.w3.org/2000/svg" width="116" height="46.837" viewBox="0 0 116 46.837"><defs><style>.a,.b{fill:#1d2b3a;}.b{font-size:10px;font-family:Poppins-Regular, Poppins;letter-spacing:0.04em;}</style></defs><g transform="translate(-112.968 -847.458)"><g transform="translate(161.433 847.458)"><path class="a" d="M671.482,1342.582a1.588,1.588,0,0,1,1.589,1.589v19.07a1.589,1.589,0,0,1-1.589,1.589H658.769a1.59,1.59,0,0,1-1.589-1.589v-19.07a1.589,1.589,0,0,1,1.589-1.589h12.713m0-1.589H658.769a3.182,3.182,0,0,0-3.178,3.178v19.07a3.183,3.183,0,0,0,3.178,3.178h12.713a3.182,3.182,0,0,0,3.178-3.178v-19.07a3.181,3.181,0,0,0-3.178-3.178Z" transform="translate(-655.591 -1340.993)"/><path class="a" d="M659.591,1347.787a.794.794,0,0,1,.794-.794h7.946a.794.794,0,1,1,0,1.589h-7.946A.8.8,0,0,1,659.591,1347.787Z" transform="translate(-653.235 -1337.458)"/><path class="a" d="M659.591,1344.788a.794.794,0,0,1,.794-.795h7.946a.795.795,0,1,1,0,1.589h-7.946A.8.8,0,0,1,659.591,1344.788Z" transform="translate(-653.235 -1339.226)"/><path class="a" d="M659.591,1350.788a.794.794,0,0,1,.794-.795h7.946a.795.795,0,1,1,0,1.589h-7.946A.8.8,0,0,1,659.591,1350.788Z" transform="translate(-653.235 -1335.691)"/><path class="a" d="M659.591,1353.788a.794.794,0,0,1,.794-.795h7.946a.795.795,0,1,1,0,1.589h-7.946A.8.8,0,0,1,659.591,1353.788Z" transform="translate(-653.235 -1333.924)"/><path class="a" d="M657.591,1347.787a.794.794,0,0,1,.794-.794h0a.794.794,0,1,1,0,1.589h0A.8.8,0,0,1,657.591,1347.787Z" transform="translate(-654.413 -1337.458)"/><path class="a" d="M657.591,1344.788a.794.794,0,0,1,.794-.795h0a.795.795,0,1,1,0,1.589h0A.8.8,0,0,1,657.591,1344.788Z" transform="translate(-654.413 -1339.226)"/><path class="a" d="M657.591,1350.788a.794.794,0,0,1,.794-.795h0a.795.795,0,1,1,0,1.589h0A.8.8,0,0,1,657.591,1350.788Z" transform="translate(-654.413 -1335.691)"/><path class="a" d="M657.591,1353.788a.794.794,0,0,1,.794-.795h0a.795.795,0,1,1,0,1.589h0A.8.8,0,0,1,657.591,1353.788Z" transform="translate(-654.413 -1333.924)"/></g><text class="b" transform="translate(112.968 890.295)"><tspan x="0" y="0">MEUS AGENDAMENTOS</tspan></text></g></svg>