<svg xmlns="http://www.w3.org/2000/svg" width="45" height="47.539" viewBox="0 0 45 47.539"><defs><style>.a,.b{fill:#1d2b3a;}.a{font-size:10px;font-family:Poppins-Regular, Poppins;letter-spacing:0.04em;}</style></defs><g transform="translate(-270.877 -846.755)"><text class="a" transform="translate(270.877 890.295)"><tspan x="0" y="0">CENTRAL</tspan></text><g transform="translate(280.289 846.755)"><path class="b" d="M107.436,56.211a13.115,13.115,0,0,0,16.447,1.676,2.815,2.815,0,0,0,.437-4.34l-.5-.5.663-.663h0a1.879,1.879,0,0,0-.514-3.02l-3.742-1.8a.743.743,0,0,0-.859.155l-1.171,1.216h-.036a6.156,6.156,0,0,1-3.436-3.451l1.216-1.216h0a.743.743,0,0,0,.152-.847l-1.813-3.748a1.879,1.879,0,0,0-3.02-.511l-.707.7a5.907,5.907,0,0,0-1.352,6.242,14.24,14.24,0,0,0,8.35,8.341,5.88,5.88,0,0,0,5.119-.487.739.739,0,0,0,.107.14l.5.5a1.329,1.329,0,0,1-.205,2.048,11.644,11.644,0,1,1,4.423-5.482.747.747,0,0,0,1.385.562,13.009,13.009,0,0,0-3.389-14.441A13.079,13.079,0,0,0,107.436,56.21Zm10.629-3.154a12.756,12.756,0,0,1-7.479-7.479,4.418,4.418,0,0,1,1.011-4.661l.707-.707a.377.377,0,0,1,.273-.116h.068a.383.383,0,0,1,.3.217l1.578,3.27-.892.892h0a1.382,1.382,0,0,0-.3,1.486A7.649,7.649,0,0,0,117.61,50.3l.086.033h0A1.4,1.4,0,0,0,119.23,50l.835-.868,3.27,1.573h0a.393.393,0,0,1,.107.63l-.707.707a4.418,4.418,0,0,1-4.67,1.014Z" transform="translate(-103.604 -33.906)"/></g></g></svg>