<svg xmlns="http://www.w3.org/2000/svg" width="31" height="47.539" viewBox="0 0 31 47.539"><defs><style>.a,.b{fill:#1d2b3a;}.b{font-size:10px;font-family:Poppins-Regular, Poppins;letter-spacing:0.04em;}</style></defs><g transform="translate(-357.623 -846.755)"><g transform="translate(362.991 846.755)"><path class="a" d="M189.965,1239.982a5.982,5.982,0,1,0-5.982,5.982A5.99,5.99,0,0,0,189.965,1239.982Zm-5.982,3.988a3.988,3.988,0,1,1,3.988-3.988A3.992,3.992,0,0,1,183.982,1243.97Z" transform="translate(-173.851 -1234)"/><path class="a" d="M193.578,1243.587A9.935,9.935,0,0,0,176,1249.97a2,2,0,0,0,1.994,1.994h17.345C197.749,1251.732,194.826,1244.869,193.578,1243.587Zm-1.625,6.383H177.994a7.95,7.95,0,0,1,14.064-5.107c.022.026.042.058.064.084a8.04,8.04,0,0,1,1.051,1.649,7.9,7.9,0,0,1,.774,3.374Z" transform="translate(-176 -1226.539)"/></g><text class="b" transform="translate(357.623 890.295)"><tspan x="0" y="0">PERFIL</tspan></text></g></svg>